<svg version="1.1" id="Layer_1" xmlns="http://www.w3.org/2000/svg" xmlns:xlink="http://www.w3.org/1999/xlink" x="0px" y="0px"
	 width="100%" viewBox="0 0 623 623" enable-background="new 0 0 623 623" xml:space="preserve">
<!--	<path fill="#f5f5f5" d="M0 0h623v625H3z"/>-->
<path fill="#D91F3D" opacity="1.000000" stroke="none"
	d="
M264.813477,358.147064
	C262.655548,358.045868 260.497650,357.856995 258.339691,357.856323
	C204.368362,357.839996 150.397034,357.843506 96.425713,357.843506
	C94.463188,357.843506 92.500656,357.843506 90.279778,357.843506
	C90.279778,326.815247 90.279778,296.263977 90.279778,265.227539
	C148.360260,265.227539 206.252121,265.227539 264.670776,265.227539
	C264.670776,206.862213 264.670776,148.977386 264.670776,90.767921
	C295.600067,90.767921 326.001892,90.767921 357.189423,90.767921
	C357.189423,148.565033 357.189423,206.280731 357.153503,264.710571
	C357.158875,265.597076 357.200195,265.769409 357.205414,266.412445
	C357.191406,296.949005 357.213470,327.014832 357.139343,357.319458
	C357.074219,357.727051 357.105347,357.895844 357.136475,358.064667
	C357.136475,358.064667 357.053650,357.935028 356.515015,357.935394
	C325.588745,358.006195 295.201111,358.076630 264.813477,358.147064
z"/>
<path fill="#F7AAAC" opacity="1.000000" stroke="none"
	d="
M357.235535,357.080658
	C357.213470,327.014832 357.191406,296.949005 357.372528,266.292694
	C357.781982,265.511414 357.927765,265.282135 358.013031,265.014374
	C413.639343,265.025604 469.265656,265.035980 524.891968,265.049164
	C531.945068,265.050842 531.950256,265.057709 531.950867,272.304657
	C531.953247,298.618958 531.955078,324.933258 531.949585,351.247559
	C531.948181,357.932983 531.935425,357.948975 525.339050,357.949432
	C469.879150,357.953339 414.419250,357.950897 358.403137,357.774902
	C357.684174,357.378143 357.480408,357.205200 357.235535,357.080658
z"/>
<path fill="#F0666F" opacity="1.000000" stroke="none"
	d="
M264.829895,358.605377
	C295.201111,358.076630 325.588745,358.006195 356.438141,357.932373
	C356.977875,359.422485 357.123688,360.915955 357.123993,362.409454
	C357.135681,417.378693 357.133850,472.347900 357.133911,527.317139
	C357.133911,528.799133 357.133911,530.281128 357.133911,532.223511
	C326.247742,532.223511 295.731079,532.223511 264.846313,532.223511
	C264.846313,474.534302 264.846313,416.798981 264.829895,358.605377
z"/>
<path fill="#E2B3BB" opacity="1.000000" stroke="none"
	d="
M357.832947,264.968201
	C357.927765,265.282135 357.781982,265.511414 357.408600,265.821960
	C357.200195,265.769409 357.158875,265.597076 357.199310,265.171753
	C357.281067,264.918823 357.652863,264.922028 357.832947,264.968201
z"/>
<path fill="#E8C5C7" opacity="1.000000" stroke="none"
	d="
M357.139343,357.319458
	C357.480408,357.205200 357.684174,357.378143 357.936096,357.780060
	C358.025269,357.960663 357.584076,358.040100 357.360291,358.052368
	C357.105347,357.895844 357.074219,357.727051 357.139343,357.319458
z"/>
</svg>
