<svg width="326" height="343" viewBox="0 0 326 343" fill="none" xmlns="http://www.w3.org/2000/svg">
<ellipse cx="204.376" cy="287.933" rx="112.5" ry="36.2005" fill="url(#paint0_linear_205_508)"/>
<path opacity="0.5" d="M189.729 292.668C115.63 299.556 118.013 244.684 118.013 244.684C127.987 210.431 156.267 206.001 165.242 190.461C182.415 160.725 166.777 123.611 139.161 119.381C128.737 117.784 107.544 146.286 149.007 169.865C163.615 178.172 182.48 174.761 199.227 150.427C224.829 113.225 173.118 65.6998 172.57 63.2351" stroke="url(#paint1_linear_205_508)" stroke-width="4" stroke-linecap="round" stroke-linejoin="round" stroke-dasharray="4 10"/>
<ellipse opacity="0.4" cx="8.00354" cy="10.5357" rx="8.00354" ry="10.5357" transform="matrix(-0.809017 -0.587785 -0.587785 0.809017 182.227 40.1013)" fill="#CED8E5"/>
<ellipse opacity="0.4" cx="8.00354" cy="10.5357" rx="8.00354" ry="10.5357" transform="matrix(0.809017 0.587785 0.587785 -0.809017 139.838 70.3032)" fill="#CED8E5"/>
<path d="M167.339 53.0168C166.779 49.4821 163.46 47.0704 159.925 47.6303L152.671 48.7792L153.817 56.0143C154.377 59.5491 157.696 61.9607 161.231 61.4009L168.485 60.252L167.339 53.0168Z" fill="white"/>
<mask id="mask0_205_508" style="mask-type:luminance" maskUnits="userSpaceOnUse" x="152" y="47" width="17" height="15">
<path d="M167.339 53.0168C166.779 49.4821 163.46 47.0704 159.925 47.6303L152.671 48.7792L153.817 56.0143C154.377 59.5491 157.696 61.9607 161.231 61.4009L168.485 60.252L167.339 53.0168Z" fill="white"/>
</mask>
<g mask="url(#mask0_205_508)">
<rect width="2.18278" height="15.9851" transform="matrix(-0.809017 -0.587785 -0.587785 0.809017 169.318 50.0298)" fill="#32B0A8" fill-opacity="0.285411"/>
<path fill-rule="evenodd" clip-rule="evenodd" d="M164.436 47.1248L162.67 45.8414L153.277 58.7733L155.043 60.0566L164.436 47.1248Z" fill="#32B0A8" fill-opacity="0.285411"/>
</g>
<path opacity="0.5" d="M144.799 46.5241L139.356 46.1064" stroke="white" stroke-width="0.72"/>
<path opacity="0.5" d="M146.614 44.0297L143.773 39.1568" stroke="white" stroke-width="0.72"/>
<ellipse cx="5.82076" cy="5.81278" rx="5.82076" ry="5.81278" transform="matrix(-0.987688 0.156434 0.156434 0.987688 155.128 41.0336)" fill="white"/>
<path fill-rule="evenodd" clip-rule="evenodd" d="M190.876 192.732C190.876 178.925 202.069 167.732 215.876 167.732V167.732C229.683 167.732 240.876 178.925 240.876 192.732V322.365C240.876 322.365 227.841 324.023 218.876 324.262C209.911 324.501 190.876 324.087 190.876 324.087V192.732Z" fill="url(#paint2_linear_205_508)"/>
<path fill-rule="evenodd" clip-rule="evenodd" d="M190.876 192.732C190.876 178.925 202.069 167.732 215.876 167.732H283.876V217.732H230.527H190.876V192.732Z" fill="url(#paint3_linear_205_508)"/>
<ellipse cx="283.376" cy="192.732" rx="11.5" ry="25" fill="url(#paint4_linear_205_508)"/>
<g opacity="0.5">
<path d="M303.867 169.156L313.531 163.941C314.544 163.394 314.917 162.14 314.364 161.14C313.811 160.14 312.541 159.772 311.528 160.319L301.864 165.534C300.851 166.08 300.478 167.334 301.031 168.335C301.585 169.335 302.854 169.703 303.867 169.156Z" fill="url(#paint5_linear_205_508)"/>
<path d="M294.585 157.837L301.293 149.142C301.996 148.23 301.826 146.933 300.914 146.244C300.002 145.555 298.693 145.736 297.989 146.648L291.282 155.342C290.579 156.254 290.748 157.551 291.661 158.24C292.573 158.929 293.882 158.748 294.585 157.837Z" fill="url(#paint6_linear_205_508)"/>
<path d="M306.034 181.997L317.011 182.313C318.161 182.346 319.111 181.446 319.133 180.303C319.154 179.161 318.238 178.207 317.087 178.174L306.111 177.858C304.96 177.825 304.01 178.725 303.989 179.868C303.968 181.011 304.883 181.964 306.034 181.997Z" fill="url(#paint7_linear_205_508)"/>
</g>
<path fill-rule="evenodd" clip-rule="evenodd" d="M28.9885 224.974L51.5669 245.451L92.7932 238.128L67.0084 217.899L28.9885 224.974Z" fill="url(#paint8_linear_205_508)" fill-opacity="0.3" style="mix-blend-mode:multiply"/>
<path fill-rule="evenodd" clip-rule="evenodd" d="M71.7516 207.243C71.7516 207.243 73.7374 210.62 74.9704 213.623C76.6816 217.79 76.1878 222.783 75.972 222.855C74.7946 223.246 70.0912 217.911 69.8007 214.524C69.5394 211.479 71.7516 207.243 71.7516 207.243Z" fill="#FFB883"/>
<path fill-rule="evenodd" clip-rule="evenodd" d="M15.6666 224.752C15.6666 224.752 39.0061 216.561 45.3495 196.713C48.9411 197.123 55.4398 199.553 71.3973 206.95C73.6263 207.983 69.8219 214.483 69.8219 214.483C69.8219 214.483 77.4544 219.857 75.9935 222.479C67.5496 237.632 60.1536 243.59 51.0544 244.883C36.5249 242.903 15.6666 224.752 15.6666 224.752Z" fill="url(#paint9_linear_205_508)"/>
<defs>
<linearGradient id="paint0_linear_205_508" x1="74.7495" y1="240.71" x2="74.7495" y2="324.133" gradientUnits="userSpaceOnUse">
<stop stop-color="#3E7CC4"/>
<stop offset="1" stop-color="#2A7F92"/>
</linearGradient>
<linearGradient id="paint1_linear_205_508" x1="23.7179" y1="235.325" x2="72.5779" y2="59.2663" gradientUnits="userSpaceOnUse">
<stop stop-color="#95ABC2" stop-opacity="0.244084"/>
<stop offset="1" stop-color="white"/>
</linearGradient>
<linearGradient id="paint2_linear_205_508" x1="207.258" y1="332.839" x2="267.738" y2="333.633" gradientUnits="userSpaceOnUse">
<stop stop-color="#DDE0F0"/>
<stop offset="1" stop-color="#5B7C9B"/>
</linearGradient>
<linearGradient id="paint3_linear_205_508" x1="200.567" y1="209.113" x2="306.131" y2="257.649" gradientUnits="userSpaceOnUse">
<stop stop-color="#E1E3EA"/>
<stop offset="1" stop-color="#4E5A65"/>
</linearGradient>
<linearGradient id="paint4_linear_205_508" x1="309.729" y1="157.838" x2="274.464" y2="152.027" gradientUnits="userSpaceOnUse">
<stop stop-color="#6882C4"/>
<stop offset="1" stop-color="#355096"/>
</linearGradient>
<linearGradient id="paint5_linear_205_508" x1="314.584" y1="160.029" x2="300.652" y2="160.272" gradientUnits="userSpaceOnUse">
<stop stop-color="white" stop-opacity="0.01"/>
<stop offset="1" stop-color="white"/>
</linearGradient>
<linearGradient id="paint6_linear_205_508" x1="300.663" y1="145.14" x2="288.034" y2="151.029" gradientUnits="userSpaceOnUse">
<stop stop-color="white" stop-opacity="0.01"/>
<stop offset="1" stop-color="white"/>
</linearGradient>
<linearGradient id="paint7_linear_205_508" x1="319.878" y1="179.451" x2="307.691" y2="172.696" gradientUnits="userSpaceOnUse">
<stop stop-color="white" stop-opacity="0.01"/>
<stop offset="1" stop-color="white"/>
</linearGradient>
<linearGradient id="paint8_linear_205_508" x1="82.5421" y1="235.46" x2="76.3556" y2="224.815" gradientUnits="userSpaceOnUse">
<stop stop-opacity="0.01"/>
<stop offset="1"/>
</linearGradient>
<linearGradient id="paint9_linear_205_508" x1="31.8116" y1="195.199" x2="26.6077" y2="228.148" gradientUnits="userSpaceOnUse">
<stop stop-color="#FFF1BC"/>
<stop offset="1" stop-color="#FFDF87"/>
</linearGradient>
</defs>
</svg>
